<?xml version="1.0" encoding="UTF-8" standalone="no" ?>
<!DOCTYPE svg PUBLIC "-//W3C//DTD SVG 1.1//EN" "http://www.w3.org/Graphics/SVG/1.1/DTD/svg11.dtd">
<svg xmlns="http://www.w3.org/2000/svg" xmlns:xlink="http://www.w3.org/1999/xlink" version="1.1" width="1080" height="1080" viewBox="0 0 1080 1080" xml:space="preserve">
<desc>Created with Fabric.js 5.2.4</desc>
<defs>
</defs>
<g transform="matrix(1 0 0 1 540 540)" id="dc593017-d2ec-46aa-b00f-92f877c3949b"  >
<rect style="stroke: none; stroke-width: 1; stroke-dasharray: none; stroke-linecap: butt; stroke-dashoffset: 0; stroke-linejoin: miter; stroke-miterlimit: 4; fill: rgb(255,255,255); fill-rule: nonzero; opacity: 1; visibility: hidden;" vector-effect="non-scaling-stroke"  x="-540" y="-540" rx="0" ry="0" width="1080" height="1080" />
</g>
<g transform="matrix(1 0 0 1 540 540)" id="106b629a-17f9-470b-95f4-bee5fc361ac0"  >
</g>
<g transform="matrix(0.39 0 0 0.39 548.2 514.38)"  >
<rect style="stroke: none; stroke-width: 1; stroke-dasharray: none; stroke-linecap: butt; stroke-dashoffset: 0; stroke-linejoin: miter; stroke-miterlimit: 4; fill: rgb(255,255,255); fill-rule: nonzero; opacity: 1; visibility: hidden;" vector-effect="non-scaling-stroke"  x="-540" y="-540" rx="0" ry="0" width="1080" height="1080" />
</g>
<g transform="matrix(0.39 0 0 0.39 540 578.14)"  >
<path style="stroke: rgb(252,252,252); stroke-width: 9; stroke-dasharray: none; stroke-linecap: butt; stroke-dashoffset: 0; stroke-linejoin: miter; stroke-miterlimit: 4; fill: rgb(0,0,0); fill-rule: nonzero; opacity: 1;" vector-effect="non-scaling-stroke"  transform=" translate(-370.26, -239.73)" d="M 1640.5404 856.3925 C 1636.3177 850.0945 1631.9541000000002 843.5787 1631.0995 836.8956000000001 C 1635.6375 832.6015000000001 1637.5145 829.0346000000001 1636.6676 826.3047 C 1635.9131 823.8546 1632.9529 822.1948 1627.8729 821.3792 C 1623.2204000000002 808.7836 1622.951 794.1223 1622.6637 778.6059 C 1622.2936 758.4335 1621.9092 737.575 1611.365 720.5785000000001 C 1611.5194 702.1665 1607.5209 684.2323000000001 1603.6517000000001 666.8909000000001 C 1599.6468000000002 648.9311000000001 1595.5014 630.3568000000001 1595.9887 611.2660000000001 C 1597.1670000000001 597.2587000000001 1592.7122000000002 583.6469000000001 1588.4047 570.4839000000001 C 1582.8254 553.4442 1577.5586 537.3494000000001 1583.2493 520.2667 C 1587.6933999999999 509.1153 1588.1784 498.0142 1584.7331 486.3275 C 1581.6579 475.8982 1575.7839999999999 465.918 1570.1041 456.2684 C 1565.5235 448.48679999999996 1560.7885 440.44309999999996 1557.4618 432.1262 C 1554.6273 421.5568 1549.3246000000001 416.1536 1540.7743 415.1225 C 1530.6755 398.4996 1525.6531 379.9691 1520.7996 362.0457 C 1516.8442 347.4418 1512.7558000000001 332.3422 1505.9550000000002 318.5826 L 1505.4844 317.2354 C 1502.2240000000002 307.927 1498.8407 298.31280000000004 1488.9674 294.32520000000005 C 1488.5686 289.99190000000004 1491.175 286.92870000000005 1493.7042 283.9680000000001 C 1497.78 279.20380000000006 1501.6223 274.6998000000001 1491.6622 265.85780000000005 C 1491.7669 263.31510000000003 1492.1342 260.70040000000006 1492.4935 258.16970000000003 C 1493.2946 252.49610000000004 1494.1111 246.63320000000004 1492.0705 241.03130000000004 L 1492.0947 241.03670000000005 L 1491.9914 240.76990000000006 L 1492.0013000000001 240.66300000000007 L 1491.9465000000002 240.64950000000007 C 1486.4211000000003 226.55260000000007 1483.7981000000002 211.21860000000007 1481.2595000000003 196.38610000000008 C 1477.0238000000004 171.6242000000001 1472.6408000000004 146.0181000000001 1454.4912000000004 126.52830000000009 L 1454.4606000000003 126.49570000000008 L 1453.6038000000003 125.12720000000009 C 1452.5126000000002 123.42270000000009 1451.1650000000004 121.30920000000009 1450.3777000000002 120.04140000000008 C 1449.0493000000001 105.70790000000008 1447.7802000000001 90.42500000000008 1448.0259000000003 74.96820000000008 L 1448.0532000000003 74.97650000000009 L 1448.0249000000003 74.7207000000001 L 1448.0281000000004 74.6082000000001 L 1448.0133000000005 74.6037000000001 C 1445.7342000000006 54.8047000000001 1444.7140000000006 34.2154000000001 1443.7278000000006 14.3031000000001 C 1441.0764000000006 -39.1958999999999 1438.3353000000006 -94.5180999999999 1411.2077000000006 -142.6640999999999 C 1406.1351000000006 -150.5048999999999 1402.3340000000005 -159.3623999999999 1398.6624000000006 -167.93069999999992 C 1391.4306000000006 -184.78889999999993 1383.9544000000005 -202.22009999999992 1366.4980000000005 -212.06199999999993 C 1353.1229000000005 -220.63569999999993 1339.9812000000004 -229.91359999999992 1327.2706000000005 -238.88419999999994 C 1304.4685000000004 -254.98079999999993 1280.8904000000005 -271.62519999999995 1255.3183000000006 -284.6483999999999 C 1241.8604000000005 -292.2987999999999 1228.7296000000006 -301.08269999999993 1216.0297000000005 -309.5755999999999 C 1191.7942000000005 -325.7834999999999 1166.7323000000006 -342.5428999999999 1138.4084000000005 -352.1153999999999 C 1070.7928000000004 -393.2749999999999 990.9489000000005 -405.9127999999999 913.7349000000005 -418.1340999999999 C 873.9739000000005 -434.25329999999985 829.6199000000005 -447.0601999999999 778.1476000000005 -457.2846999999999 C 732.2164000000005 -466.4080999999999 684.8661000000004 -472.69869999999986 639.0786000000005 -478.78269999999986 C 602.4845000000005 -483.64529999999985 564.6438000000005 -488.67309999999986 527.5217000000005 -495.13619999999986 C 526.5229000000005 -495.11289999999985 525.5027000000005 -495.10209999999984 524.4895000000005 -495.10209999999984 C 502.4813000000005 -495.10209999999984 480.4372000000005 -500.5070999999998 459.1188000000005 -505.7343999999998 C 437.9836000000005 -510.9166999999998 416.1299000000005 -516.2749999999999 394.5008000000005 -516.2749999999999 C 385.5499000000005 -516.2749999999999 377.26360000000045 -515.3903999999999 369.1704000000005 -513.5751999999999 C 345.9048000000005 -524.7892999999999 318.7979000000005 -527.2523999999999 292.57920000000047 -529.6322999999999 C 273.01040000000046 -531.4088999999999 252.77340000000046 -533.2463999999999 234.11710000000048 -538.6855999999999 L 234.0686000000005 -538.6999 L 234.0219000000005 -538.6855999999999 C 227.7133000000005 -536.9037 220.7796000000005 -536.0360999999999 212.8239000000005 -536.0360999999999 C 205.3136000000005 -536.0360999999999 197.6398000000005 -536.7959 190.2193000000005 -537.5287999999999 C 182.8204000000005 -538.2616999999999 175.1700000000005 -539.0178999999999 167.70460000000048 -539.0178999999999 C 160.01290000000049 -539.0178999999999 153.30550000000048 -538.2023999999999 147.19990000000047 -536.5255999999999 L 146.95740000000046 -536.5479999999999 L 146.96460000000047 -536.5275999999999 C 130.60710000000046 -536.7210999999999 113.89440000000047 -537.4748999999999 97.72640000000047 -538.2041999999999 C 78.83300000000047 -539.0574999999999 59.296500000000464 -539.9393999999999 40.128300000000465 -539.9393999999999 C 2.734900000000465 -539.9393999999999 -27.20749999999954 -536.4204999999998 -54.08009999999953 -528.8687999999999 C -81.26879999999953 -525.0193999999999 -108.30839999999952 -517.7659999999998 -134.45699999999954 -510.7513999999999 C -172.52039999999954 -500.54129999999986 -211.88079999999954 -489.98449999999985 -252.38179999999954 -489.7616999999999 C -274.4941999999995 -484.7266999999999 -294.61979999999954 -473.7764999999999 -307.7973999999995 -465.9931999999999 C -317.2602999999995 -463.1244999999999 -326.24529999999953 -458.7666999999999 -334.9339999999995 -454.55259999999987 C -346.38179999999954 -449.00209999999987 -358.2174999999995 -443.2610999999999 -371.1256999999995 -440.98159999999984 L -371.2100999999995 -440.96549999999985 L -371.2495999999995 -440.88819999999987 C -372.6919999999995 -438.0500999999999 -373.53629999999947 -434.6657999999999 -374.34999999999945 -431.39479999999986 C -376.07449999999943 -424.47909999999985 -377.85639999999944 -417.32799999999986 -385.44209999999947 -414.9227999999999 C -395.20669999999944 -410.4697999999999 -403.7372999999995 -402.9324999999999 -410.11239999999947 -393.1265999999999 C -416.09269999999947 -383.9270999999999 -419.94979999999947 -373.1704999999999 -421.27909999999946 -362.01099999999985 C -424.91299999999944 -361.66029999999984 -428.08709999999945 -359.98909999999984 -430.22009999999943 -357.27079999999984 C -432.26789999999943 -354.65759999999983 -433.10589999999945 -351.33989999999983 -432.59839999999946 -347.92129999999986 C -433.4911999999995 -347.09549999999984 -435.2685999999995 -345.42739999999986 -436.2205999999995 -344.51419999999985 C -451.04359999999946 -332.72129999999987 -462.26999999999947 -317.30689999999987 -470.5432999999995 -297.39499999999987 C -477.9188999999995 -279.64049999999986 -482.3233999999995 -260.0176999999999 -486.5805999999995 -241.04169999999988 C -493.0040999999995 -212.42499999999987 -499.64319999999947 -182.83459999999988 -516.6145999999995 -158.92059999999987 C -522.4471999999995 -158.30989999999986 -528.4072999999995 -158.00089999999986 -534.3331999999996 -158.00089999999986 L -534.3349999999996 -158.00089999999986 C -553.4474999999995 -158.00089999999986 -599.3822999999995 -161.70479999999986 -613.1113999999995 -196.01579999999984 L -613.2047999999995 -196.24929999999983 L -613.3897999999995 -196.07679999999982 C -616.9086999999995 -192.78599999999983 -620.5713999999995 -191.18729999999982 -624.5878999999994 -191.18729999999982 C -629.5833999999994 -191.18729999999982 -634.4657999999994 -193.58529999999982 -639.6353999999994 -196.1252999999998 C -645.1349999999994 -198.82509999999982 -650.8287999999994 -201.62999999999982 -656.9332999999995 -201.52609999999981 C -658.9081999999995 -206.7768999999998 -666.9388999999994 -218.8304999999998 -671.8626999999994 -218.8304999999998 C -674.0523999999995 -218.8304999999998 -675.3151999999994 -216.5329999999998 -675.6151999999995 -211.9632999999998 C -675.2271999999995 -209.4861999999998 -675.5522999999995 -207.6808999999998 -676.6066999999995 -206.4486999999998 C -678.2484999999995 -204.5284999999998 -681.4566999999995 -204.2643999999998 -684.6773999999995 -204.2643999999998 C -685.5144999999994 -204.2643999999998 -686.3784999999995 -204.2840999999998 -687.2137999999994 -204.3038999999998 C -688.0526999999994 -204.3218999999998 -688.8878999999994 -204.3415999999998 -689.6998999999994 -204.3415999999998 C -691.5376999999994 -204.3415999999998 -692.8374999999994 -204.2344999999998 -693.9195999999994 -204.0058999999998 C -694.9802999999994 -205.0622999999998 -696.0198999999993 -206.2031999999998 -697.0250999999994 -207.3090999999998 C -700.3446999999994 -210.9663999999998 -703.7791999999994 -214.7474999999998 -708.7602999999993 -216.2761999999998 L -709.0153999999993 -216.3533999999998 L -708.9812999999994 -216.08929999999978 C -708.1783999999993 -209.6459999999998 -706.9568999999993 -203.15599999999978 -705.7748999999993 -196.8797999999998 C -703.5169999999994 -184.8858999999998 -701.1835999999993 -172.4896999999998 -701.6847999999993 -159.94799999999978 C -706.8364999999993 -164.0381999999998 -711.5732999999993 -169.25099999999978 -715.7694999999993 -175.44639999999978 L -715.7813999999993 -175.45719999999977 L -715.7784999999993 -175.46079999999978 C -717.9447999999993 -178.05459999999977 -719.2075999999993 -182.2830999999998 -720.4290999999994 -186.37149999999977 C -722.5791999999993 -193.56749999999977 -724.8030999999994 -201.00949999999978 -731.9881999999993 -201.00949999999978 C -732.3851999999994 -201.00949999999978 -732.8000999999994 -200.98609999999977 -733.2185999999994 -200.93939999999978 L -733.4539999999994 -200.91429999999977 L -733.3587999999994 -200.69879999999978 C -729.9116999999994 -192.85979999999978 -729.0027999999994 -187.87329999999977 -730.5798999999994 -185.45729999999978 C -731.4205999999994 -184.16939999999977 -732.9689999999994 -183.56939999999977 -735.4532999999993 -183.56939999999977 C -735.4532999999993 -183.56939999999977 -735.4532999999993 -183.56939999999977 -735.4550999999993 -183.56939999999977 C -737.1705999999994 -183.56939999999977 -739.1464999999994 -183.85679999999977 -741.0577999999994 -184.13339999999977 C -742.7175999999994 -184.37409999999977 -744.4329999999993 -184.62379999999976 -745.9598999999994 -184.68129999999977 L -746.1358999999994 -184.68849999999978 L -746.1394999999994 -184.5124999999998 C -746.2557999999995 -179.3137999999998 -745.1161999999995 -172.0778999999998 -739.0865999999994 -167.04559999999978 L -739.1015999999994 -166.93759999999978 L -739.0674999999994 -166.93739999999977 C -737.8345999999995 -156.82229999999976 -743.1347999999995 -146.77159999999978 -752.3151999999994 -141.85599999999977 C -761.7779999999995 -149.09329999999977 -771.2282999999994 -155.68569999999977 -782.6975999999994 -156.97899999999976 L -782.8933999999994 -157.00229999999976 L -782.8898999999993 -156.80469999999977 C -782.8359999999993 -153.51029999999977 -780.2367999999993 -149.28539999999978 -777.7237999999993 -145.19879999999978 C -774.9771999999994 -140.73139999999978 -772.3815999999993 -136.51189999999977 -773.6299999999993 -134.27729999999977 C -774.2838999999993 -133.10789999999977 -775.9544999999993 -132.54029999999977 -778.7368999999993 -132.54029999999977 C -779.3529999999993 -132.54029999999977 -780.0320999999993 -132.56899999999976 -780.7361999999993 -132.6228999999998 C -783.5132999999993 -133.1581999999998 -785.4730999999992 -132.72889999999978 -786.6118999999993 -131.3492999999998 C -788.7979999999993 -128.7140999999998 -787.7022999999994 -122.9174999999998 -786.6441999999993 -117.3112999999998 C -785.7781999999993 -112.71769999999981 -784.8844999999993 -107.9739999999998 -785.8190999999993 -105.1018999999998 C -786.5736999999992 -104.44799999999981 -787.3398999999993 -103.7977999999998 -788.1081999999992 -103.1474999999998 C -793.5549999999993 -98.53439999999979 -799.1787999999992 -93.76299999999979 -801.1770999999992 -86.4852999999998 C -802.7753999999992 -85.6214999999998 -804.1633999999992 -85.17559999999979 -805.2950999999993 -85.17559999999979 C -809.9977999999993 -85.17559999999979 -810.1683999999992 -92.86549999999978 -810.3336999999992 -100.30399999999979 C -810.5007999999992 -107.89869999999979 -810.6749999999993 -115.75389999999979 -815.7063999999992 -115.75389999999979 C -817.4936999999992 -115.75389999999979 -819.7443999999992 -114.77669999999979 -822.5843999999993 -112.76489999999978 L -822.6292999999993 -112.73439999999978 L -822.6471999999993 -112.68229999999978 C -824.2629999999994 -108.12669999999979 -825.8196999999993 -103.39729999999979 -827.2800999999993 -98.59669999999979 L -827.2834999999993 -98.59759999999979 C -833.0473999999994 -83.45749999999978 -836.4887999999993 -68.25709999999978 -837.5164999999993 -53.41769999999978 C -840.3168999999992 -49.14899999999978 -843.2120999999993 -44.83499999999978 -846.0133999999993 -40.65999999999978 C -862.2410999999993 -16.478299999999784 -879.0202999999992 8.527900000000216 -886.2467999999992 37.633200000000215 C -893.6653999999992 44.25250000000022 -891.1398999999992 52.276600000000215 -888.6968999999992 60.038400000000216 C -886.3760999999993 67.41040000000021 -883.9762999999992 75.03380000000021 -889.6883999999992 81.80770000000021 C -899.2967999999992 94.71230000000021 -900.4822999999992 110.51070000000021 -901.6265999999993 125.78990000000022 C -902.6001999999993 138.7735000000002 -903.6078999999993 152.1990000000002 -909.7152999999993 163.97910000000022 L -909.7385999999992 164.02220000000023 L -909.7349999999992 164.07250000000022 C -909.4134999999992 168.08720000000022 -909.3056999999992 172.3983000000002 -909.1906999999992 176.9609000000002 C -908.6778999999992 197.4456000000002 -908.0888999999992 220.65460000000022 -887.8133999999992 229.6437000000002 C -888.0606999999992 235.6509000000002 -888.2326999999992 241.7660000000002 -888.4003999999992 247.68270000000018 C -888.6801999999992 257.5670000000002 -888.9695999999992 267.7843000000002 -889.6107999999992 277.82700000000017 C -893.9905999999993 284.80690000000016 -895.3827999999993 289.88750000000016 -893.7442999999993 292.92780000000016 C -892.5625999999993 295.1204000000002 -889.7906999999992 296.2819000000002 -885.5251999999992 296.39730000000014 C -879.5468999999993 314.1184000000001 -879.5607999999993 333.1800000000001 -879.5787999999992 351.61260000000016 C -879.6002999999992 375.24100000000016 -879.6236999999992 399.67420000000016 -866.8125999999992 421.0106000000002 C -852.1278999999992 442.92890000000017 -851.2350999999992 468.77400000000017 -850.3728999999992 493.7712000000002 C -849.7122999999991 512.9069000000002 -849.0283999999991 532.6948000000002 -842.1563999999992 550.5767000000002 L -842.1655999999991 550.7209000000001 L -842.1202999999991 550.7218000000001 C -841.0930999999991 556.6599000000001 -837.0791999999991 561.7281000000002 -830.7892999999991 565.0071000000002 C -827.3376999999991 568.0745000000002 -823.7396999999991 571.0842000000001 -820.2598999999991 573.9937000000001 L -818.6972999999991 575.3030000000001 C -817.0309999999992 582.2964000000001 -811.6519999999991 587.0164000000001 -804.9641999999991 587.3584000000001 C -801.6216999999991 589.4412000000001 -797.741999999999 591.8633000000001 -793.8774999999991 594.3080000000001 C -783.9147999999991 609.3129000000001 -764.3903999999991 610.8438000000001 -745.5053999999991 612.3266000000001 C -732.9636999999991 613.3110000000001 -721.1170999999991 614.2415000000001 -711.828499999999 618.8004000000001 C -701.3618999999991 623.9369 -696.042899999999 632.8290000000001 -695.0891999999991 646.7583000000001 L -695.121099999999 646.7722000000001 L -695.089399999999 646.8600000000001 L -695.2413999999991 647.2033000000001 L -695.003399999999 647.0973000000001 C -687.172899999999 668.3340000000002 -679.491999999999 691.5232000000001 -671.524899999999 717.9880000000002 L -669.879299999999 720.1860000000001 L -669.965799999999 720.1939000000001 L -669.749299999999 720.3890000000001 L -669.7825999999991 720.5244000000001 L -669.6359999999991 720.5112000000001 L -669.475399999999 720.7256000000001 L -669.456499999999 720.6466000000001 C -660.706299999999 728.5254000000001 -644.7129999999989 737.6252000000002 -628.042099999999 737.6252000000002 C -621.314299999999 737.6252000000002 -615.300099999999 736.0723000000002 -610.1491999999989 733.0310000000002 C -608.2322999999989 736.7880000000001 -606.844699999999 739.5389000000001 -606.1416999999989 740.9699000000002 L -606.1353999999989 740.9748000000002 L -606.1380999999989 740.9771000000002 C -604.7890999999988 743.4308000000002 -603.4454999999989 746.0354000000002 -602.1484999999989 748.5539000000002 C -595.7702999999989 760.9348000000002 -589.1671999999988 773.7251000000002 -576.5746999999989 779.9865000000002 L -576.5872999999989 780.0069000000002 L -576.4559999999989 780.0637000000002 L -576.3393999999989 780.2619000000002 L -576.270899999999 780.1512000000002 L -575.899299999999 780.3337000000002 L -575.942199999999 780.2605000000002 C -572.828699999999 781.5399000000002 -569.717299999999 782.2090000000002 -566.6842999999991 782.2090000000002 C -556.7969999999991 782.2090000000002 -548.6481999999991 775.3388000000002 -545.8679999999991 764.7034000000002 L -545.7843999999991 764.7166000000002 L -545.8072999999991 764.5475000000002 C -544.1497999999991 761.4444000000002 -542.4238999999991 758.3209000000003 -540.7529999999991 755.2968000000002 C -537.5474999999991 749.5015000000002 -534.2337999999992 743.5062000000001 -531.2909999999991 737.4565000000002 L -531.2109999999991 737.4165000000003 L -531.2298999999991 737.3525000000003 C -528.6149999999991 733.5496000000003 -526.1993999999992 729.4529000000003 -523.8623999999992 725.4892000000003 C -517.3382999999992 714.4132000000003 -510.59139999999917 702.9565000000003 -498.7070999999992 696.5689000000003 L -498.6567999999992 696.5294000000004 C -494.2225999999992 691.3329000000003 -491.6988999999992 684.5919000000004 -490.7126999999992 675.3300000000004 C -482.9257999999992 665.4652000000004 -481.2574999999992 653.3301000000004 -479.6465999999992 641.5916000000004 C -478.7080999999992 634.7587000000004 -477.7362999999992 627.6912000000004 -475.5824999999992 621.1316000000004 C -463.9388999999992 617.4497000000003 -459.5271999999992 606.7228000000003 -455.2672999999992 596.3430000000004 C -454.32239999999916 594.0402000000004 -453.34529999999916 591.6619000000004 -452.30519999999916 589.4093000000004 C -448.9083999999992 577.7298000000004 -440.45869999999917 569.1974000000004 -432.28549999999916 560.9452000000003 C -426.7708999999992 555.3751000000003 -421.0702999999992 549.6177000000004 -416.91909999999916 542.9140000000003 C -412.8639999999992 540.0833000000003 -408.5070999999992 537.1151000000003 -403.7926999999992 534.7209000000004 C -395.8673999999992 534.1683000000004 -386.4889999999992 533.6020000000003 -377.0081999999992 533.6020000000003 C -360.1705999999992 533.6020000000003 -346.40389999999917 535.3867000000004 -333.6896999999992 539.2096000000004 C -332.71699999999925 549.3795000000003 -324.3758999999992 549.6692000000004 -315.5408999999992 549.9627000000004 C -310.76279999999923 550.1244000000004 -305.8228999999992 550.2896000000004 -302.0039999999992 552.1075000000004 C -294.25299999999925 555.5600000000004 -286.1516999999992 558.4268000000004 -278.3198999999992 561.1967000000004 C -274.9989999999992 562.3746000000004 -271.56669999999923 563.5889000000004 -268.20319999999924 564.8333000000005 L -268.20319999999924 564.8360000000005 L -268.1321999999992 564.8596000000005 C -260.4952999999992 579.6667000000004 -243.83729999999923 581.0334000000005 -227.72729999999922 582.3499000000005 C -214.8648999999992 583.4034000000005 -202.7192999999992 584.4020000000005 -194.91579999999922 591.7187000000005 L -194.92519999999922 591.7949000000004 L -194.83849999999921 591.8059000000004 C -193.04169999999922 595.7476000000004 -190.21889999999922 597.7586000000005 -186.4322999999992 597.7586000000005 C -182.3133999999992 597.7586000000005 -177.1472999999992 595.4243000000005 -171.0820999999992 590.8368000000005 L -171.0685999999992 590.9003000000005 L -170.88399999999922 590.7041000000005 L -170.7613999999992 590.6848000000005 L -170.7766999999992 590.6114000000005 L -170.3392999999992 590.2788000000005 L -170.44979999999921 590.2941000000005 C -168.75719999999922 588.6209000000006 -167.0385999999992 587.7389000000005 -165.3330999999992 587.7389000000005 C -162.6404999999992 587.7389000000005 -159.93879999999922 589.7256000000006 -156.8347999999992 593.9900000000005 L -156.8217999999992 594.0077000000005 C -156.1279999999992 595.0330000000005 -154.7699999999992 596.9453000000004 -154.1618999999992 597.7993000000005 L -154.3181999999992 597.7981000000004 L -153.9561999999992 598.0894000000004 L -153.9157999999992 598.1467000000005 L -153.8870999999992 598.1467000000005 C -152.2775999999992 599.4472000000005 -150.5468999999992 601.0147000000005 -148.71199999999922 602.6805000000005 C -142.18069999999923 608.6083000000006 -134.77999999999923 615.3264000000005 -127.19599999999923 615.3264000000005 C -123.72199999999923 615.3264000000005 -120.47249999999923 613.8462000000005 -117.53909999999922 610.9327000000005 C -116.33559999999922 609.7004000000005 -115.09969999999922 609.0789000000005 -113.86389999999922 609.0789000000005 C -110.89999999999922 609.0789000000005 -108.33849999999921 612.5314000000005 -106.27999999999922 615.3085000000005 C -106.04469999999922 615.6276000000006 -105.81749999999921 615.9309000000005 -105.59649999999922 616.2220000000005 L -105.60099999999922 616.2426000000005 L -105.57409999999922 616.2675000000005 C -104.87269999999921 624.5053000000005 -94.30059999999922 634.9743000000005 -86.65199999999922 634.9743000000005 C -84.00699999999922 634.9743000000005 -80.62319999999922 633.6830000000006 -79.50189999999922 627.5475000000006 C -76.83259999999922 623.1674000000006 -74.63219999999923 621.0350000000005 -72.77569999999922 621.0350000000005 C -69.75969999999921 621.0350000000005 -67.84489999999921 626.8083000000005 -65.81869999999923 632.9228000000005 C -63.817599999999224 638.9523000000005 -61.74469999999923 645.1612000000005 -58.281899999999226 647.7947000000005 L -58.38019999999923 647.8535000000005 L -58.07029999999923 647.9768000000005 L -57.99929999999923 648.0260000000005 L -57.96969999999923 648.0082000000006 C -56.19719999999923 648.6930000000006 -54.48799999999923 649.0355000000005 -52.75239999999923 649.0355000000005 C -47.07969999999923 649.0355000000005 -42.292599999999226 645.2992000000005 -37.663499999999225 641.6850000000005 C -33.74039999999923 638.6205000000006 -29.686199999999225 635.4554000000005 -25.075099999999225 634.5106000000005 C -22.493799999999226 638.4912000000005 -20.564599999999224 642.9137000000005 -18.698299999999225 647.1924000000005 C -16.900199999999224 651.3131000000005 -15.040999999999226 655.5775000000004 -12.569299999999226 659.4934000000005 C -5.730799999999226 666.2367000000005 3.8865000000007743 667.3611000000005 13.185900000000773 668.4497000000006 C 21.748800000000774 669.4556000000006 30.601000000000774 670.4903000000006 37.24540000000077 675.9115000000006 C 38.99680000000077 682.3818000000006 39.78180000000077 689.3190000000006 40.539800000000774 696.0228000000006 C 42.034300000000776 709.2361000000006 43.58230000000077 722.8960000000006 52.574100000000776 733.7490000000006 C 53.016900000000774 737.5935000000006 53.292600000000775 741.5312000000006 53.586300000000776 745.6975000000006 C 54.83790000000078 763.5127000000006 56.133400000000776 781.9372000000005 70.60480000000078 793.2555000000006 C 71.63180000000078 794.4065000000005 72.66830000000078 795.5541000000005 73.70650000000077 796.7051000000006 C 79.54980000000077 803.1816000000006 85.58900000000077 809.8775000000006 90.03120000000078 817.5612000000006 C 95.34100000000078 837.6013000000006 112.19120000000078 850.6217000000006 128.4880000000008 863.2146000000006 C 134.1921000000008 867.6213000000006 140.0858000000008 872.1779000000006 145.2708000000008 876.9023000000005 C 145.0517000000008 885.2955000000005 144.9547000000008 894.0003000000005 144.8595000000008 902.4204000000005 C 144.8272000000008 905.2886000000005 144.7953000000008 908.1564000000005 144.7580000000008 911.0109000000006 C 141.1263000000008 914.6394000000006 138.5011000000008 919.7088000000006 136.74380000000082 926.5194000000006 L 136.73120000000083 926.5697000000006 L 136.74740000000082 926.6164000000006 C 136.96470000000082 927.2739000000006 137.28450000000083 928.2367000000006 137.61140000000083 929.2282000000006 C 137.99040000000082 930.3760000000005 138.37800000000084 931.5497000000006 138.63890000000083 932.3275000000006 C 137.56740000000084 934.5444000000006 135.61840000000083 938.5442000000005 134.60440000000082 940.6167000000006 L 130.9902000000008 940.2108000000006 L 130.93990000000082 940.3293000000007 C 129.18670000000083 944.3350000000007 127.59880000000082 948.0678000000007 126.08090000000082 951.7430000000006 C 125.41810000000082 953.5824000000006 124.09420000000082 957.2971000000006 123.42600000000083 959.1868000000006 L 122.72540000000083 961.8094000000007 L 122.60860000000083 962.3914000000007 C 121.63680000000083 967.2567000000007 120.63090000000084 972.2861000000007 119.67750000000083 977.2701000000006 C 117.84120000000084 980.1057000000006 116.04410000000084 983.0158000000007 114.30430000000084 985.8294000000006 C 113.81840000000084 986.6144000000006 113.33160000000083 987.4040000000007 112.83270000000084 988.2128000000007 C 108.23190000000085 992.8684000000007 101.08090000000084 994.6498000000007 94.16610000000084 996.3700000000007 C 83.55000000000084 999.0106000000006 73.52490000000084 1001.5038000000006 74.19850000000083 1014.0203000000007 L 74.20570000000083 1014.1496000000006 L 74.33320000000083 1014.1783000000006 C 90.30220000000082 1017.6918000000006 106.72390000000084 1019.3983000000006 124.54140000000083 1019.3983000000006 C 161.42110000000082 1019.3983000000006 198.44270000000085 1011.8395000000006 234.24640000000085 1004.5286000000007 C 243.33560000000085 1002.6712000000007 252.73560000000086 1000.7492000000007 261.98480000000086 998.9853000000006 L 262.0477000000009 998.9602000000007 C 266.56720000000087 995.9711000000007 271.9596000000009 994.3904000000007 277.63770000000085 994.3904000000007 C 280.0968000000008 994.3904000000007 282.59010000000086 994.6850000000006 285.05280000000084 995.2670000000007 L 285.30790000000087 995.3244000000008 L 285.2630000000009 995.0693000000008 C 284.12950000000086 988.5991000000008 279.9747000000009 983.6916000000008 275.9582000000009 978.9458000000008 C 271.0866000000009 973.1905000000007 266.0480000000009 967.2376000000007 266.4271000000009 958.4250000000008 L 265.7643000000009 954.7857000000007 C 264.6515000000009 949.0010000000007 263.5113000000009 942.8296000000007 262.8678000000009 936.5219000000008 C 264.7368000000009 932.6621000000008 266.3005000000009 929.4382000000007 267.9558000000009 926.1272000000008 L 267.9576000000009 926.1276000000008 C 271.66880000000094 918.8454000000008 274.0919000000009 911.0926000000009 275.16070000000093 903.0740000000009 C 279.77000000000095 903.9146000000009 284.3829000000009 905.1146000000009 288.8467000000009 906.2750000000009 C 295.7804000000009 908.0787000000009 302.9498000000009 909.9457000000009 310.2774000000009 910.5060000000009 C 322.5730000000009 918.6490000000009 338.0256000000009 918.8277000000008 354.3845000000009 919.0144000000009 C 372.9178000000009 919.2225000000009 392.0797000000009 919.444100000001 406.8434000000009 932.020200000001 L 406.8470000000009 932.055500000001 L 406.9242000000009 932.0860000000009 L 407.2170000000009 932.3357000000009 L 407.20260000000087 932.1682000000009 C 409.40580000000085 932.9907000000009 411.7499000000009 933.4458000000009 414.0141000000009 933.4458000000009 C 418.3203000000009 933.4458000000009 422.0768000000009 931.9647000000009 424.8889000000009 929.1576000000009 L 427.4306000000009 927.4336000000009 C 430.2526000000009 929.5681000000009 433.8110000000009 930.7513000000008 437.47370000000086 930.7513000000008 C 440.58400000000086 930.7513000000008 443.63590000000085 929.9237000000008 446.3142000000009 928.3645000000008 C 449.3544000000009 929.0653000000008 453.9673000000009 930.1213000000008 458.4904000000009 931.1537000000009 C 462.53920000000085 932.0806000000009 466.5126000000009 932.9895000000008 469.21420000000086 933.6110000000009 L 469.27170000000086 933.6218000000009 L 471.9410000000009 932.4218000000009 C 473.1337000000009 931.8398000000009 475.4833000000009 930.7297000000009 476.8880000000009 930.0651000000008 L 477.1606000000009 929.9366000000008 L 483.3771000000009 930.0821000000008 C 487.51760000000087 931.9761000000008 491.4443000000009 932.9391000000007 495.0521000000009 932.9391000000007 C 497.1322000000009 932.9391000000007 499.1368000000009 932.6194000000007 501.0194000000009 931.9907000000007 L 501.10920000000095 931.9584000000008 L 501.13070000000096 931.8686000000008 C 501.29960000000096 931.2291000000008 501.569000000001 930.2520000000009 501.83130000000097 929.2819000000009 C 502.073800000001 928.3918000000009 502.30910000000097 927.5182000000009 502.47080000000096 926.9083000000008 L 504.99820000000096 925.6972000000009 L 508.37340000000097 924.9026000000009 L 508.384200000001 924.7768000000009 C 509.002200000001 916.513900000001 509.447600000001 909.2676000000009 509.745800000001 902.5926000000009 C 507.202300000001 881.7161000000009 496.259200000001 864.5867000000009 485.679100000001 848.0176000000008 C 482.43500000000097 842.9377000000009 479.07950000000096 837.6853000000008 475.964800000001 832.3432000000008 C 459.133500000001 813.9168000000009 437.08220000000097 808.6573000000009 415.756600000001 803.5702000000008 C 407.432600000001 801.5835000000008 398.821200000001 799.5285000000008 390.61750000000103 796.7371000000009 C 382.85750000000104 792.0488000000008 381.222900000001 783.5775000000009 379.64390000000105 775.3864000000009 C 379.08710000000104 772.4988000000009 378.51140000000106 769.5190000000009 377.67610000000104 766.7662000000009 L 377.67160000000104 766.706700000001 L 377.610500000001 766.656400000001 C 371.34680000000105 761.770500000001 368.49430000000103 753.988900000001 370.509800000001 747.295900000001 C 372.214500000001 741.626800000001 377.143500000001 738.070200000001 384.02330000000103 737.534900000001 C 392.33120000000105 737.175600000001 397.45420000000104 731.366400000001 398.21940000000103 725.815900000001 C 398.99360000000104 720.207900000001 395.602200000001 715.5914000000009 389.182300000001 713.486100000001 C 386.013600000001 711.564100000001 384.549700000001 709.749800000001 384.83170000000104 708.093600000001 C 385.279000000001 705.474400000001 390.10650000000106 703.111600000001 398.76640000000106 701.2432000000009 L 398.75290000000103 701.2641000000009 L 399.158800000001 701.1525000000009 C 399.164200000001 701.151400000001 399.168300000001 701.150200000001 399.17320000000103 701.1491000000009 L 399.24510000000106 701.1348000000008 L 399.2536000000011 701.1217000000008 C 411.4868000000011 697.7285000000008 412.9463000000011 684.1611000000008 414.2298000000011 672.1857000000008 C 414.6429000000011 668.3344000000008 415.0345000000011 664.6952000000008 415.7495000000011 661.5050000000008 L 415.7531000000011 661.4547000000008 C 415.36870000000107 656.6191000000008 416.6297000000011 651.2266000000008 417.9625000000011 645.5180000000008 C 420.5303000000011 634.5283000000009 423.18340000000114 623.1689000000008 413.3370000000011 615.9402000000008 C 412.9355000000011 615.4963000000008 412.3832000000011 614.8979000000008 411.7868000000011 614.2553000000008 C 410.7773000000011 613.1658000000008 409.6528000000011 611.9543000000008 408.94860000000114 611.1567000000008 C 419.55660000000114 594.8646000000008 422.24750000000114 576.5381000000008 424.8422000000011 558.8109000000009 C 426.3259000000011 548.6942000000008 427.85640000000114 538.2362000000008 430.82740000000115 528.1266000000008 L 430.8418000000012 528.0727000000009 L 430.8239000000012 528.0224000000009 C 427.52230000000117 518.2578000000009 427.5007000000012 511.30250000000086 430.75560000000115 506.76510000000087 C 433.84160000000116 502.4648000000009 439.9885000000012 500.37390000000084 449.55200000000116 500.37390000000084 C 457.26530000000116 500.37390000000084 466.13180000000114 501.68160000000086 474.70730000000117 502.9426000000008 C 482.5786000000012 504.1030000000008 490.01530000000116 505.1987000000008 495.96100000000115 505.1987000000008 C 496.69930000000113 505.1987000000008 497.41200000000117 505.18050000000085 498.0802000000011 505.1455000000008 C 501.82060000000115 505.98060000000083 505.66460000000114 506.70180000000084 509.37930000000114 507.4010000000008 C 516.7729000000012 508.7877000000008 524.4215000000012 510.2212000000008 531.7072000000012 512.6426000000008 C 534.9513000000012 513.6629000000008 538.2601000000012 514.7514000000008 541.4610000000011 515.8076000000008 C 546.3532000000012 517.4241000000007 551.4106000000012 519.0899000000007 556.5108000000012 520.5856000000008 L 556.5104000000011 520.5894000000008 C 576.5067000000012 525.7591000000008 597.4874000000011 526.5818000000007 617.7747000000012 527.3794000000007 C 635.8238000000011 528.0872000000007 654.4873000000011 528.8165000000007 672.5652000000011 532.5887000000007 C 675.6476000000011 532.9120000000007 678.9025000000012 533.0737000000007 682.2472000000012 533.0737000000007 C 695.9529000000011 533.0737000000007 710.1185000000012 530.3505000000007 723.8170000000011 527.7171000000008 C 737.2856000000012 525.1304000000008 751.2105000000012 522.4540000000007 764.4599000000012 522.4540000000007 C 775.1057000000012 522.4540000000007 784.3583000000012 524.1704000000008 792.7502000000012 527.6960000000007 C 796.6746000000012 536.0443000000007 799.2568000000012 545.5415000000007 801.7473000000012 554.7298000000008 C 806.6548000000013 572.8113000000008 811.7275000000012 591.5107000000007 827.3122000000012 602.9315000000007 C 829.3025000000013 609.5060000000007 831.5299000000012 616.1307000000007 833.6854000000012 622.5398000000007 C 837.8173000000012 634.8240000000008 842.0921000000012 647.5249000000007 844.8691000000013 660.4081000000007 C 843.9691000000013 665.1932000000006 842.2901000000013 673.8547000000007 841.2801000000012 679.0595000000006 C 841.0205000000012 680.3948000000006 840.7951000000012 681.5545000000006 840.6500000000012 682.3011000000006 C 837.3282000000012 687.6951000000006 834.6922000000012 692.1052000000005 832.3507000000012 696.1810000000006 C 826.6300000000012 702.7458000000006 824.5256000000012 711.5613000000006 825.9141000000012 723.1281000000006 C 820.2751000000012 725.0542000000006 817.0526000000012 730.9480000000005 818.1874000000012 737.2651000000005 C 812.9319000000012 738.1053000000005 809.4808000000012 742.7342000000006 810.0655000000012 748.1643000000005 L 809.9851000000011 748.1688000000005 L 810.0341000000011 748.2806000000005 C 805.1037000000011 752.0340000000006 802.6576000000011 757.8158000000005 803.6289000000011 763.4281000000005 C 801.060200000001 766.6354000000006 798.1601000000011 770.2582000000006 795.377600000001 773.8670000000005 C 788.508600000001 776.9640000000005 784.6528000000011 784.2983000000005 785.530300000001 792.5875000000005 C 785.0193000000011 793.0963000000005 784.251400000001 793.8741000000006 783.518500000001 794.6209000000006 C 782.9608000000011 795.1821000000006 782.433100000001 795.7207000000005 782.0595000000011 796.0943000000005 C 773.9767000000011 800.8160000000006 768.4593000000011 806.9304000000005 765.6567000000011 814.2638000000005 C 765.2719000000011 814.7203000000005 764.6984000000011 815.3964000000005 764.1186000000012 816.0722000000005 C 763.5258000000011 816.7692000000005 762.9295000000011 817.4625000000005 762.5415000000012 817.9260000000005 L 762.5415000000012 817.9260000000005 C 761.9883000000012 818.4829000000005 761.4350000000012 819.0361000000005 760.8818000000011 819.5894000000005 C 754.6648000000012 825.8095000000005 748.2440000000012 832.2389000000005 744.3069000000012 840.4131000000006 C 738.2938000000012 842.1225000000005 732.6099000000012 847.2907000000006 733.3662000000012 855.0403000000006 C 731.1056000000012 859.4610000000006 728.5454000000012 864.4672000000006 726.0580000000011 869.4385000000005 C 723.3690000000012 870.0191000000005 721.0355000000011 871.6134000000005 719.6497000000011 873.8374000000006 C 718.3384000000011 875.9435000000005 717.9638000000011 878.4588000000006 718.561100000001 880.9361000000006 C 711.652100000001 882.7690000000006 707.151900000001 888.4509000000006 707.324400000001 895.1457000000006 L 707.201400000001 895.2708000000006 C 703.6182000000009 898.9648000000005 699.9098000000009 902.7802000000006 696.2265000000009 906.5356000000006 C 686.9729000000009 907.6594000000006 681.1408000000009 910.6736000000006 677.8787000000009 916.0252000000006 L 677.8248000000009 916.1150000000006 L 679.1379000000009 918.3446000000006 C 677.8405000000008 918.8595000000006 675.6217000000008 919.7718000000006 674.5008000000008 920.2446000000006 C 673.9008000000008 920.1935000000005 673.2910000000008 920.1674000000006 672.6874000000008 920.1674000000006 C 663.6664000000009 920.1674000000006 654.4406000000008 926.0520000000006 649.1811000000008 935.1593000000006 C 645.2687000000008 941.9349000000007 644.6005000000008 948.8650000000006 647.3884000000008 953.6970000000006 C 650.0865000000008 958.3710000000005 655.8023000000009 960.8426000000005 663.9107000000008 960.8426000000005 L 664.2807000000008 960.8354000000005 C 682.6927000000009 963.6843000000005 697.4510000000008 965.0100000000006 710.7256000000008 965.0100000000006 C 733.1029000000008 965.0100000000006 750.1659000000008 961.2144000000005 762.8917000000008 953.4136000000005 C 766.9742000000008 953.9511000000006 771.1484000000008 954.5942000000006 775.1874000000008 955.2130000000005 C 783.0659000000009 956.4273000000005 791.2103000000009 957.6811000000006 799.2721000000008 958.2631000000006 C 805.0526000000008 958.5290000000006 809.5110000000008 958.7876000000006 813.7287000000008 959.1109000000006 C 814.7130000000008 959.1576000000006 815.7010000000008 959.1792000000006 816.6710000000008 959.1792000000006 C 823.3065000000008 959.1792000000006 835.3057000000008 958.0331000000006 841.1329000000009 950.3486000000006 C 844.6572000000009 945.6927000000006 845.3398000000009 939.3805000000006 843.1591000000009 931.5882000000006 C 843.8776000000008 925.4628000000006 844.8045000000009 919.3590000000006 845.6991000000008 913.4564000000006 C 846.2559000000008 909.7731000000006 846.8317000000009 905.9679000000006 847.3557000000009 902.1952000000006 L 850.9012000000008 903.6558000000006 L 851.0377000000008 903.7133000000006 L 851.1131000000007 903.5876000000005 C 854.8566000000008 897.4766000000005 857.5798000000007 890.7656000000005 860.2167000000007 884.2738000000005 C 860.7017000000008 883.0847000000005 861.1831000000008 881.8956000000005 861.6717000000008 880.7100000000005 C 900.0167000000008 838.8196000000005 939.1448000000008 792.9209000000005 965.5926000000007 741.1794000000004 C 974.5668000000007 732.5078000000004 989.2749000000008 714.7498000000004 987.2981000000008 692.9999000000005 C 1011.0945000000007 674.9546000000005 1020.9373000000007 647.8325000000004 1030.4549000000009 621.6020000000004 C 1034.1661000000008 611.3775000000004 1038.0030000000008 600.8045000000004 1042.605000000001 590.9428000000005 L 1042.6697000000008 590.8099000000005 L 1042.5475000000008 590.7273000000006 C 1023.2872000000008 577.6487000000005 1024.7821000000008 550.7867000000006 1035.9677000000008 532.1486000000006 C 1054.0672000000009 515.6252000000005 1059.7148000000009 491.18100000000055 1050.7162000000008 468.34050000000053 L 1050.7171000000008 468.3243000000005 L 1050.6883000000007 468.2776000000005 C 1047.9328000000007 463.81560000000053 1046.9772000000007 460.75830000000053 1047.8502000000008 459.19190000000054 C 1048.7115000000008 457.64440000000053 1051.4787000000008 457.5355000000005 1056.0876000000007 458.8854000000005 C 1060.2168000000008 462.93670000000054 1063.8830000000007 464.9939000000005 1066.9915000000008 464.9939000000005 C 1069.4093000000007 464.9939000000005 1071.4427000000007 463.7688000000005 1073.0342000000007 461.3474000000005 C 1078.0059000000008 453.7844000000005 1077.2896000000007 436.7546000000005 1073.3863000000008 427.6388000000005 L 1073.429400000001 427.51960000000054 L 1073.346800000001 427.49900000000054 C 1072.721700000001 425.4137000000005 1072.813800000001 423.82980000000055 1073.645000000001 422.66970000000055 C 1075.4377000000009 420.16930000000053 1080.3990000000008 420.03270000000055 1085.1987000000008 419.90340000000054 C 1089.9553000000008 419.77410000000054 1094.4497000000008 419.6519000000005 1095.9262000000008 417.30240000000055 C 1096.6843000000008 416.0989000000005 1096.5693000000008 414.43910000000056 1095.5741000000007 412.21890000000053 C 1089.1757000000007 400.71550000000053 1096.6914000000006 389.4239000000005 1104.2501000000007 379.7312000000005 C 1107.0847000000006 375.5961000000005 1109.9300000000007 371.3281000000005 1112.6819000000007 367.2039000000005 C 1124.8537000000008 348.9643000000005 1137.4348000000007 330.1069000000005 1153.7919000000006 315.1437000000005 C 1157.7545000000007 315.74360000000047 1161.0202000000006 318.3087000000005 1164.1817000000005 320.7877000000005 C 1167.8677000000005 323.6797000000005 1171.6794000000004 326.6687000000005 1176.6660000000006 326.6687000000005 C 1178.3976000000007 326.6687000000005 1180.1472000000006 326.3238000000005 1182.0405000000005 325.5945000000005 C 1182.7231000000006 325.1742000000005 1183.6500000000005 324.5958000000005 1184.6523000000004 323.9743000000005 C 1186.3515000000004 322.9134000000005 1188.2408000000005 321.73750000000047 1189.5085000000004 320.9689000000005 L 1189.5769000000005 324.17190000000045 L 1189.5742000000005 324.17190000000045 C 1188.1838000000005 333.74250000000046 1186.6067000000005 344.59220000000045 1190.5477000000005 349.15110000000044 C 1191.8447000000006 350.64560000000046 1193.6876000000004 351.4037000000004 1196.0300000000004 351.4037000000004 C 1198.0239000000004 351.4037000000004 1200.4489000000003 350.8576000000004 1203.2080000000005 349.7834000000004 C 1206.3695000000005 349.1942000000004 1208.4891000000005 349.57860000000045 1209.6675000000005 350.97610000000043 C 1211.6004000000005 353.2825000000004 1210.7669000000005 357.99240000000043 1209.8866000000005 362.9825000000004 C 1208.9490000000005 368.2959000000004 1207.9753000000005 373.7926000000004 1210.4076000000005 376.7277000000004 C 1211.5643000000005 378.1252000000004 1213.3607000000004 378.8186000000004 1215.9006000000004 378.8509000000004 L 1215.9257000000005 378.8509000000004 L 1215.9508000000005 378.8437000000004 C 1219.5111000000006 377.8665000000004 1222.6366000000005 375.8223000000004 1225.9454000000005 373.6524000000004 C 1229.5569000000005 371.2891000000004 1233.2976000000006 368.8718000000004 1237.6235000000006 367.9806000000004 C 1231.6931000000006 379.4989000000004 1236.9558000000006 386.4557000000004 1242.5431000000005 393.8068000000004 C 1246.3872000000006 398.8651000000004 1250.3606000000007 404.0960000000004 1251.0109000000004 411.1841000000004 C 1251.9629000000004 418.5633000000004 1258.5409000000004 419.7812000000004 1264.9034000000004 420.9595000000004 C 1271.8048000000003 422.2385000000004 1278.3254000000004 423.4456000000004 1277.6104000000005 432.18990000000036 C 1277.4128000000005 434.7442000000004 1277.8151000000005 436.51900000000035 1278.8355000000006 437.6255000000004 C 1279.6618000000005 438.5165000000004 1280.8760000000007 438.94760000000036 1282.5502000000006 438.94760000000036 C 1284.6770000000006 438.94760000000036 1287.2637000000007 438.24700000000036 1289.7641000000006 437.5680000000004 C 1292.0804000000005 436.9378000000004 1294.2679000000005 436.3490000000004 1296.0655000000006 436.2886000000004 C 1299.4506000000006 444.8531000000004 1305.2213000000006 452.04930000000036 1310.7988000000007 459.00850000000037 C 1317.8474000000008 467.7996000000004 1325.1332000000007 476.8852000000004 1327.3893000000007 488.6330000000004 L 1327.4109000000008 488.7444000000004 L 1327.5797000000007 488.78390000000036 C 1333.2613000000006 490.03500000000037 1339.1280000000006 491.33350000000036 1344.6481000000008 493.56790000000035 C 1340.5086000000008 511.40550000000036 1351.0174000000009 521.9215000000004 1362.1476000000007 533.0482000000004 C 1371.1579000000006 542.0548000000005 1380.4734000000008 551.3703000000004 1381.3895000000007 564.9826000000004 L 1381.4038000000007 565.2018000000004 L 1381.6122000000007 565.1372000000003 C 1384.6049000000007 564.1959000000004 1387.2742000000007 562.3242000000004 1389.8537000000008 560.5135000000004 C 1393.514500000001 557.9484000000003 1396.9706000000008 555.5270000000004 1401.2601000000009 555.5270000000004 C 1402.246300000001 555.5270000000004 1403.2577000000008 555.6720000000004 1404.268000000001 555.9367000000004 C 1401.174400000001 561.3501000000005 1401.630200000001 567.7831000000004 1405.426200000001 572.0627000000004 L 1405.416800000001 572.0887000000004 L 1405.4720000000011 572.1355000000003 C 1407.7390000000012 582.3898000000004 1415.091100000001 586.9189000000003 1422.8803000000012 591.7115000000003 C 1429.5741000000012 595.8311000000003 1436.4944000000012 600.0930000000003 1440.275600000001 608.3337000000004 C 1438.281300000001 614.9585000000004 1438.359000000001 619.6018000000004 1440.5271000000012 622.5251000000004 C 1442.5570000000012 625.2662000000004 1446.4334000000013 626.5416000000004 1452.720300000001 626.5416000000004 C 1454.589800000001 626.5416000000004 1456.771000000001 626.4251000000004 1459.3333000000011 626.1985000000003 C 1456.224900000001 632.9225000000004 1458.4344000000012 640.5338000000003 1464.9140000000011 645.2702000000003 L 1464.9100000000012 645.2877000000003 L 1464.9854000000012 645.3346000000004 C 1474.622500000001 658.5985000000004 1484.5187000000012 673.1787000000004 1495.243100000001 689.9081000000003 C 1493.749400000001 697.5284000000004 1496.276400000001 705.3663000000004 1502.184400000001 711.4373000000003 L 1502.179400000001 711.4595000000003 L 1502.1831000000009 711.4622000000003 C 1500.3257000000008 719.4355000000003 1501.265100000001 725.8002000000002 1504.977200000001 730.3752000000003 C 1507.2294000000009 736.8961000000003 1509.097600000001 742.3978000000003 1510.872200000001 748.0224000000003 C 1509.7275000000009 750.5798000000003 1507.348400000001 756.8999000000003 1509.282100000001 761.7198000000003 C 1510.129400000001 763.8275000000003 1511.710600000001 765.3623000000003 1513.970800000001 766.3084000000003 C 1513.042100000001 794.1247000000003 1513.252300000001 821.4384000000003 1513.603000000001 851.6882000000004 C 1508.585100000001 854.7300000000004 1507.255800000001 860.7226000000004 1509.667800000001 869.5106000000004 C 1509.667300000001 869.5155000000004 1509.666800000001 869.5200000000004 1509.6665000000012 869.5249000000005 C 1508.402300000001 877.0473000000004 1507.491100000001 884.8718000000005 1506.6091000000013 892.4359000000004 C 1506.3333000000014 894.8041000000004 1506.0567000000012 897.1649000000004 1505.7707000000012 899.5187000000004 C 1503.9470000000013 904.3435000000004 1501.6267000000012 909.0184000000004 1499.3845000000013 913.5352000000004 L 1499.2254000000012 913.8597000000003 C 1497.1755000000012 915.2664000000003 1493.117100000001 917.9597000000003 1491.1970000000013 919.2151000000003 C 1484.8668000000011 923.9896000000003 1478.3211000000013 928.9295000000003 1471.9874000000013 933.9303000000003 L 1471.9083000000014 933.9950000000003 L 1471.9264000000014 934.0956000000003 C 1472.0449000000015 934.8248000000003 1472.2173000000014 935.9530000000003 1472.3862000000015 937.0487000000003 C 1472.5227000000016 937.9448000000003 1472.6548000000016 938.8057000000002 1472.7570000000014 939.4335000000003 C 1472.1921000000013 939.8336000000003 1471.4026000000015 940.3894000000004 1470.6006000000014 940.9538000000003 C 1469.7634000000014 941.5430000000003 1468.9264000000014 942.1286000000003 1468.3552000000013 942.5345000000003 L 1468.3547000000012 942.5352000000004 L 1465.9517000000012 944.0901000000003 C 1460.3544000000013 948.7928000000004 1456.7403000000013 957.0377000000003 1456.743800000001 965.0888000000003 C 1456.747500000001 971.3363000000003 1458.946100000001 976.6210000000003 1462.9339000000011 979.9657000000003 L 1462.9807000000012 980.0052000000003 L 1463.0417000000011 980.0052000000003 C 1465.5170000000012 980.0591000000003 1468.085600000001 980.1561000000003 1470.571700000001 980.2495000000002 C 1474.6493000000012 980.4004000000002 1478.867000000001 980.5549000000002 1483.0452000000012 980.5549000000002 C 1493.8077000000012 980.5549000000002 1506.297300000001 979.6675000000002 1517.348100000001 973.0716000000002 L 1517.358000000001 973.0680000000002 C 1518.098100000001 972.6404000000002 1519.143500000001 972.0333000000002 1520.2392000000011 971.4010000000002 C 1521.6754000000012 970.5720000000002 1523.1794000000011 969.7013000000002 1524.186100000001 969.1220000000002 C 1525.856300000001 969.3068000000002 1529.1133000000011 969.6673000000002 1530.7835000000011 969.8526000000002 C 1534.8216000000011 969.6335000000001 1539.032000000001 968.9006000000002 1543.102500000001 968.1929000000001 C 1548.110600000001 967.3235000000001 1553.291100000001 966.4253000000001 1558.3315000000011 966.4253000000001 C 1562.7180000000012 966.4253000000001 1566.5477000000012 967.1079000000001 1570.0433000000012 968.5162000000001 C 1572.7378000000012 969.4467000000002 1575.6513000000011 969.9173000000002 1578.712200000001 969.9173000000002 C 1588.581000000001 969.9173000000002 1598.751600000001 964.9164000000002 1604.021900000001 957.4690000000002 C 1606.8386000000012 953.4884000000002 1609.5796000000012 947.0002000000002 1606.637300000001 938.6654000000002 C 1605.789500000001 936.9266000000002 1605.609800000001 935.4716000000002 1606.080500000001 934.2178000000002 C 1606.960600000001 931.8862000000003 1609.996400000001 930.6180000000003 1612.931600000001 929.3894000000003 C 1614.283300000001 928.8231000000003 1615.555000000001 928.2899000000002 1616.633300000001 927.6559000000002 C 1617.306500000001 927.7675000000002 1617.9890000000012 927.8302000000002 1618.665400000001 927.8302000000002 C 1624.169200000001 927.8302000000002 1629.070400000001 924.1148000000002 1630.671700000001 918.7823000000002 L 1630.732900000001 918.8128000000002 L 1630.748500000001 918.5867000000002 C 1631.7890000000011 916.3000000000002 1632.7627000000011 913.9283000000001 1633.700300000001 911.6312000000001 C 1635.906100000001 906.2459000000001 1638.1838000000012 900.6774000000001 1641.550200000001 895.8238000000001 C 1657.1022 881.0987 1648.6812 868.5391 1640.5404 856.3925 z" stroke-linecap="round" />
</g>
</svg>